# xmcd CD database file generated by LOLA_Freedb v0.9beta0
# 
# Track frame offsets:
#      150
#      15555
#      30177
#      47625
#      62961
#      79195
#      94199
#      114659
#      129788
#      142996
# 
# Disc length: 2111 seconds
# 
# Revision: 0 
# Processed by: cddbd v1.5.2PL0 Copyright (c) Steve Scherf et al.
# Submitted via: LOLA_Freedb v0.9beta0
# 
DISCID=76083d0a
DTITLE=Eddie Floyd - Soul Street
DYEAR=1974
DGENRE=
TTITLE0=Soul Street
TTITLE1=I Don't Want To Be With Nobody But My Baby
TTITLE2=Stealing Love
TTITLE3=I Am So Grateful
TTITLE4=Don't You Know That It's All Right
TTITLE5=Guess Who
TTITLE6=Stop Look What You're Doing To Me
TTITLE7=I Am So Glad I Met You
TTITLE8=Your Love Is Amazin'
TTITLE9=Stick With Me Baby
EXTD=
EXTT0=
EXTT1=
EXTT2=
EXTT3=
EXTT4=
EXTT5=
EXTT6=
EXTT7=
EXTT8=
EXTT9=
PLAYORDER=
